<svg width="48" height="60" viewBox="0 0 48 60" fill="none" xmlns="http://www.w3.org/2000/svg">
<path d="M47.7716 32.9021V32.8831C47.7714 32.8761 47.7714 32.8691 47.7716 32.8619C47.2005 29.1632 45.7191 25.756 43.7539 22.6913C43.5066 22.3038 43.2495 21.9229 42.9866 21.5445C42.8591 21.361 42.73 21.1791 42.5985 20.9989C40.0714 17.5123 32.0892 8.0332 27.8958 3.09089C26.3096 1.22063 25.2657 0 25.2657 0C24.7927 0.376838 24.3304 0.765689 23.8788 1.16656L23.8632 1.18048C20.5929 4.2194 17.8811 7.80229 15.8496 11.768L15.8432 11.7803C15.452 12.5449 15.0867 13.3231 14.7472 14.115C13.9619 15.9496 13.3233 17.8429 12.838 19.7774C12.5436 20.9466 12.3052 22.1366 12.1227 23.3468C11.1191 23.1835 10.1054 23.0887 9.08877 23.0633C8.89651 23.0584 8.70424 23.0559 8.51198 23.0559C6.85069 23.0546 5.19452 23.2388 3.57454 23.6048C2.58291 25.1967 1.78463 26.9001 1.19647 28.6791C0.401386 31.0866 -0.00250096 33.6049 1.16513e-05 36.1388C1.16513e-05 47.7208 8.30104 57.3769 19.3114 59.5438C20.8555 59.8479 22.4258 60.0006 24 60C24.3107 60 24.6197 59.9934 24.9278 59.9827C25.7371 59.9511 26.5349 59.8813 27.3215 59.7731C29.1546 59.5204 30.9521 59.057 32.6775 58.3918C33.1374 58.2149 33.5901 58.0237 34.0355 57.8185C42.2756 54.0409 48 45.7538 48 36.1388C47.9967 35.056 47.9205 33.9746 47.7716 32.9021ZM16.2535 54.3481C13.8904 53.3557 11.7437 51.9164 9.93255 50.1104C8.11646 48.3098 6.66913 46.176 5.6708 43.827C4.63525 41.3936 4.10443 38.7776 4.11016 36.1355C4.10434 33.493 4.63515 30.8767 5.6708 28.4431C5.83561 28.0521 6.01386 27.6681 6.20559 27.2913C6.96737 27.1964 7.73435 27.1487 8.50209 27.1487C9.58208 27.1487 10.6599 27.2434 11.7231 27.4321C11.7001 27.9656 11.6885 28.5038 11.6885 29.0436C11.6739 39.0874 15.6574 48.7291 22.7689 55.863C20.526 55.7317 18.3224 55.2193 16.2535 54.3481ZM25.0703 52.3338C24.5881 51.8243 24.1242 51.3016 23.6786 50.7659C21.5429 48.2099 19.7975 45.3551 18.4989 42.2935C16.7143 38.1006 15.7994 33.5929 15.8085 29.0403C15.8085 28.9163 15.8085 28.7926 15.8085 28.6691C17.85 29.5695 19.7062 30.8377 21.2833 32.4097C23.7282 34.8276 25.4212 37.8942 26.1596 41.2434C26.4389 42.5159 26.5793 43.8148 26.5783 45.1173C26.5859 47.6002 26.0745 50.0578 25.0761 52.3338H25.0703ZM43.8914 36.8194C43.7655 40.5352 42.5861 44.1402 40.4892 47.2185C38.785 49.7186 36.5307 51.8002 33.897 53.3054L33.8706 53.293C33.1785 53.6873 32.4632 54.0397 31.7283 54.3481C30.8129 54.7334 29.8694 55.049 28.9061 55.2928C28.7347 55.3364 28.5628 55.3775 28.3902 55.4157C28.2972 55.4369 28.2048 55.4574 28.1118 55.4764C28.1479 55.4107 28.1834 55.3428 28.2181 55.2755C28.2717 55.1731 28.3244 55.0707 28.3755 54.9675C29.0045 53.7168 29.5112 52.4088 29.8883 51.0615C30.4296 49.1277 30.7033 47.1295 30.7016 45.1223C30.7023 43.6619 30.5579 42.2052 30.2705 40.7731C28.7437 33.1823 23.3005 26.9988 16.125 24.3887C16.4556 21.9743 17.0486 19.6028 17.894 17.3157C18.0836 16.804 18.2854 16.2958 18.4997 15.7912C18.8228 15.0309 19.1721 14.2854 19.5479 13.5547C19.55 13.551 19.5521 13.5472 19.5536 13.5432C19.7076 13.2246 19.8667 12.9108 20.0316 12.5979C21.325 10.1493 22.9555 7.89189 24.8759 5.89096L24.9081 5.92948C26.6104 7.93655 28.8888 10.6367 31.1581 13.3573C32.319 14.7499 33.4778 16.1483 34.5555 17.4632C36.5768 19.9298 38.3138 22.1023 39.2524 23.3926C39.3865 23.5778 39.5176 23.7621 39.6461 23.949C40.9942 25.8945 42.0358 27.8615 42.742 29.8071C43.191 31.0338 43.5147 32.3024 43.7084 33.5935V33.6098C43.8671 34.672 43.929 35.7463 43.893 36.8194H43.8914Z" fill="white"/>
</svg>
